<svg id="svg" xmlns="http://www.w3.org/2000/svg" xmlns:xlink="http://www.w3.org/1999/xlink" width="400" height="400" viewBox="0, 0, 400,400" version="1.1"><g id="svgg"><path id="path0" d="M146.367 50.037 C 139.953 50.343,130.905 51.252,127.200 51.962 C 87.676 59.539,56.876 81.261,37.533 115.200 C 36.342 117.290,34.945 119.900,34.428 121.000 C 33.910 122.100,32.896 124.260,32.174 125.800 C 29.792 130.880,28.112 135.357,26.397 141.200 C 25.913 142.850,25.373 144.650,25.197 145.200 C 24.618 147.008,23.426 152.388,22.827 155.900 C 21.092 166.061,20.845 169.085,20.368 186.000 C 19.927 201.609,20.421 230.379,21.217 235.433 C 21.428 236.771,21.600 238.523,21.600 239.327 C 21.600 240.131,21.771 241.556,21.980 242.494 C 22.190 243.432,22.559 245.460,22.801 247.000 C 23.043 248.540,23.412 250.565,23.620 251.500 C 24.502 255.451,24.896 257.057,25.211 258.000 C 25.395 258.550,25.936 260.350,26.413 262.000 C 26.891 263.650,27.425 265.360,27.600 265.800 C 27.776 266.240,28.139 267.230,28.407 268.000 C 28.675 268.770,29.128 269.940,29.415 270.600 C 29.701 271.260,30.474 273.150,31.132 274.800 C 46.261 312.741,84.306 343.465,125.200 350.765 C 137.120 352.892,149.887 353.607,176.000 353.607 C 209.667 353.607,221.405 352.550,238.200 348.008 C 245.643 345.995,257.955 340.862,264.800 336.918 C 278.820 328.841,290.489 319.283,299.619 308.400 C 300.818 306.970,301.900 305.710,302.023 305.600 C 304.582 303.304,314.089 288.507,317.250 281.900 C 318.342 279.618,318.668 279.990,312.400 276.380 C 309.650 274.796,306.815 273.163,306.100 272.750 C 305.385 272.338,304.215 271.665,303.500 271.255 C 302.785 270.845,301.120 269.879,299.800 269.109 C 297.230 267.609,294.658 266.154,291.316 264.308 L 289.233 263.158 287.964 265.679 C 284.859 271.850,279.296 280.786,276.929 283.406 C 276.528 283.850,275.300 285.282,274.200 286.589 C 269.776 291.845,262.225 298.775,257.400 302.007 C 256.300 302.744,255.310 303.457,255.200 303.591 C 254.235 304.770,242.378 311.021,237.800 312.764 C 236.480 313.267,235.040 313.829,234.600 314.013 C 231.763 315.200,227.785 316.270,219.800 317.993 C 212.578 319.552,202.735 320.000,175.629 320.001 C 153.906 320.002,141.027 319.602,136.200 318.775 C 128.220 317.407,125.085 316.681,119.800 314.976 C 98.184 308.000,79.375 292.953,67.580 273.200 C 64.428 267.921,62.325 263.372,59.166 255.000 C 57.891 251.621,55.617 241.861,54.833 236.400 C 53.218 225.152,53.210 177.179,54.822 166.800 C 55.975 159.371,58.170 150.230,59.576 147.000 C 59.767 146.560,60.519 144.670,61.246 142.800 C 67.847 125.832,80.906 109.892,97.202 98.911 C 107.863 91.727,121.837 86.460,135.600 84.437 C 150.596 82.234,209.820 82.802,220.800 85.254 C 224.988 86.189,226.254 86.494,227.200 86.792 C 227.750 86.965,229.010 87.329,230.000 87.600 C 233.025 88.428,234.401 88.911,237.200 90.126 C 237.970 90.461,239.410 91.051,240.400 91.437 C 244.212 92.926,255.685 99.375,257.289 100.930 C 257.570 101.203,258.430 101.859,259.200 102.388 C 269.688 109.591,283.285 126.303,288.255 138.100 C 289.002 139.873,289.669 139.971,291.686 138.600 C 292.495 138.050,293.260 137.600,293.386 137.600 C 293.511 137.600,294.916 136.815,296.507 135.856 C 298.098 134.898,300.210 133.660,301.200 133.106 C 302.190 132.553,305.250 130.792,308.000 129.192 C 310.750 127.593,314.033 125.725,315.295 125.042 C 316.557 124.359,317.685 123.553,317.801 123.252 C 318.415 121.655,307.217 103.162,302.607 98.159 C 302.383 97.916,301.480 96.805,300.600 95.689 C 290.804 83.267,271.115 68.284,255.600 61.443 C 254.170 60.813,252.277 59.975,251.394 59.581 C 248.361 58.230,241.673 55.950,237.200 54.744 C 226.464 51.848,217.923 50.606,204.600 50.003 C 194.484 49.546,156.203 49.568,146.367 50.037 M155.400 108.789 C 144.773 109.081,142.365 109.246,137.200 110.042 C 127.133 111.592,112.579 118.088,106.200 123.878 C 105.760 124.278,104.337 125.504,103.037 126.602 C 95.866 132.664,88.465 143.354,84.485 153.400 C 82.777 157.713,81.160 163.724,80.451 168.400 C 78.792 179.341,78.776 224.050,80.427 234.400 C 80.952 237.693,81.448 239.879,82.467 243.400 C 83.822 248.080,84.396 249.676,85.827 252.736 C 86.582 254.350,87.200 255.741,87.200 255.826 C 87.200 255.911,88.282 257.794,89.605 260.009 C 97.927 273.943,112.819 286.097,126.924 290.465 C 138.066 293.915,143.829 294.381,175.541 294.392 C 206.242 294.402,211.505 294.072,220.900 291.542 C 239.571 286.516,255.655 273.230,264.425 255.590 C 267.318 249.768,267.662 250.500,260.000 246.166 C 257.292 244.634,255.985 243.879,251.400 241.197 C 249.420 240.039,246.810 238.550,245.600 237.888 C 244.390 237.226,243.219 236.545,242.997 236.374 C 242.533 236.016,228.088 227.695,224.800 225.891 C 223.590 225.228,222.405 224.533,222.166 224.348 C 221.927 224.163,220.487 223.316,218.966 222.466 C 216.447 221.058,205.796 214.907,202.400 212.898 C 201.630 212.443,200.260 211.649,199.354 211.135 C 198.449 210.621,194.541 208.400,190.669 206.200 C 182.298 201.444,182.451 201.666,186.116 199.557 C 187.702 198.645,190.440 197.047,192.200 196.008 C 193.960 194.968,196.210 193.663,197.200 193.107 C 198.190 192.552,202.510 190.072,206.800 187.598 C 211.090 185.123,215.590 182.554,216.800 181.888 C 218.010 181.222,219.450 180.373,220.000 180.000 C 220.550 179.627,221.990 178.778,223.200 178.113 C 224.410 177.449,227.650 175.598,230.400 174.000 C 233.150 172.402,236.390 170.551,237.600 169.887 C 238.810 169.222,240.250 168.373,240.800 168.000 C 241.350 167.627,242.790 166.779,244.000 166.115 C 245.210 165.451,247.820 163.961,249.800 162.803 C 251.780 161.645,253.940 160.386,254.600 160.005 C 255.260 159.625,256.610 158.842,257.600 158.266 C 258.590 157.691,260.901 156.364,262.735 155.319 C 267.152 152.801,267.116 152.926,264.782 148.182 C 254.747 127.780,236.400 113.833,214.600 110.035 C 207.606 108.817,177.473 108.182,155.400 108.789 M357.200 135.802 C 353.165 136.597,350.015 137.805,349.405 138.791 C 349.187 139.144,349.707 141.840,350.796 146.000 C 353.898 157.857,355.060 177.738,354.639 211.793 C 354.374 233.191,353.958 240.059,352.358 249.400 C 351.873 252.229,351.152 255.589,349.840 261.122 C 349.008 264.635,348.915 264.529,354.800 266.848 C 356.883 267.669,366.429 267.582,368.818 266.721 C 374.947 264.510,379.562 261.070,382.659 256.400 C 387.505 249.095,388.157 242.518,388.150 201.000 C 388.142 156.428,387.367 151.038,379.842 143.263 C 373.618 136.831,365.520 134.163,357.200 135.802 M207.147 142.123 C 217.427 148.238,212.447 164.001,200.511 163.129 C 194.138 162.663,189.478 157.100,190.142 150.748 C 191.013 142.417,199.989 137.865,207.147 142.123 M311.521 160.791 C 310.488 161.185,308.328 162.271,306.721 163.206 C 305.115 164.141,302.810 165.447,301.600 166.108 C 297.678 168.249,296.691 169.155,296.978 170.349 C 297.861 174.023,297.863 229.241,296.980 232.862 C 296.752 233.797,300.121 236.800,301.398 236.800 C 301.499 236.800,303.340 237.845,305.491 239.121 C 318.054 246.582,329.175 242.374,330.782 229.553 C 331.353 225.001,331.341 177.475,330.768 173.329 C 329.430 163.653,320.053 157.544,311.521 160.791 M269.600 184.652 C 268.610 185.212,267.170 186.043,266.400 186.498 C 263.778 188.049,252.609 194.515,250.000 195.993 C 248.570 196.803,246.500 197.993,245.400 198.637 C 244.300 199.281,242.905 200.062,242.300 200.372 C 240.621 201.232,240.944 201.818,244.100 203.632 C 245.695 204.549,247.810 205.797,248.800 206.404 C 249.790 207.011,251.410 207.956,252.400 208.504 C 253.390 209.053,257.080 211.166,260.600 213.200 C 264.120 215.233,267.630 217.252,268.400 217.686 C 269.170 218.120,269.971 218.638,270.180 218.838 C 271.958 220.533,272.402 217.094,272.398 201.637 C 272.397 192.907,272.004 183.591,271.638 183.617 C 271.507 183.626,270.590 184.092,269.600 184.652 " stroke="none" fill="#1598fb" fillRule="evenodd"></path><path id="path1" d="M0.000 200.000 L 0.000 400.000 200.000 400.000 L 400.000 400.000 400.000 200.000 L 400.000 0.000 200.000 0.000 L 0.000 0.000 0.000 200.000 M204.600 50.003 C 217.923 50.606,226.464 51.848,237.200 54.744 C 241.673 55.950,248.361 58.230,251.394 59.581 C 252.277 59.975,254.170 60.813,255.600 61.443 C 271.115 68.284,290.804 83.267,300.600 95.689 C 301.480 96.805,302.383 97.916,302.607 98.159 C 307.217 103.162,318.415 121.655,317.801 123.252 C 317.685 123.553,316.557 124.359,315.295 125.042 C 314.033 125.725,310.750 127.593,308.000 129.192 C 305.250 130.792,302.190 132.553,301.200 133.106 C 300.210 133.660,298.098 134.898,296.507 135.856 C 294.916 136.815,293.511 137.600,293.386 137.600 C 293.260 137.600,292.495 138.050,291.686 138.600 C 289.669 139.971,289.002 139.873,288.255 138.100 C 283.285 126.303,269.688 109.591,259.200 102.388 C 258.430 101.859,257.570 101.203,257.289 100.930 C 255.685 99.375,244.212 92.926,240.400 91.437 C 239.410 91.051,237.970 90.461,237.200 90.126 C 234.401 88.911,233.025 88.428,230.000 87.600 C 229.010 87.329,227.750 86.965,227.200 86.792 C 226.254 86.494,224.988 86.189,220.800 85.254 C 209.820 82.802,150.596 82.234,135.600 84.437 C 121.837 86.460,107.863 91.727,97.202 98.911 C 80.906 109.892,67.847 125.832,61.246 142.800 C 60.519 144.670,59.767 146.560,59.576 147.000 C 58.170 150.230,55.975 159.371,54.822 166.800 C 53.210 177.179,53.218 225.152,54.833 236.400 C 55.617 241.861,57.891 251.621,59.166 255.000 C 62.325 263.372,64.428 267.921,67.580 273.200 C 79.375 292.953,98.184 308.000,119.800 314.976 C 125.085 316.681,128.220 317.407,136.200 318.775 C 141.027 319.602,153.906 320.002,175.629 320.001 C 202.735 320.000,212.578 319.552,219.800 317.993 C 227.785 316.270,231.763 315.200,234.600 314.013 C 235.040 313.829,236.480 313.267,237.800 312.764 C 242.378 311.021,254.235 304.770,255.200 303.591 C 255.310 303.457,256.300 302.744,257.400 302.007 C 262.225 298.775,269.776 291.845,274.200 286.589 C 275.300 285.282,276.528 283.850,276.929 283.406 C 279.296 280.786,284.859 271.850,287.964 265.679 L 289.233 263.158 291.316 264.308 C 294.658 266.154,297.230 267.609,299.800 269.109 C 301.120 269.879,302.785 270.845,303.500 271.255 C 304.215 271.665,305.385 272.338,306.100 272.750 C 306.815 273.163,309.650 274.796,312.400 276.380 C 318.668 279.990,318.342 279.618,317.250 281.900 C 314.089 288.507,304.582 303.304,302.023 305.600 C 301.900 305.710,300.818 306.970,299.619 308.400 C 290.489 319.283,278.820 328.841,264.800 336.918 C 257.955 340.862,245.643 345.995,238.200 348.008 C 229.799 350.280,224.987 351.208,215.600 352.365 C 202.458 353.985,149.817 353.991,136.400 352.374 C 115.489 349.854,99.425 344.532,83.000 334.681 C 60.468 321.168,40.368 297.962,31.132 274.800 C 30.474 273.150,29.701 271.260,29.415 270.600 C 29.128 269.940,28.675 268.770,28.407 268.000 C 28.139 267.230,27.776 266.240,27.600 265.800 C 27.425 265.360,26.891 263.650,26.413 262.000 C 25.936 260.350,25.395 258.550,25.211 258.000 C 24.896 257.057,24.502 255.451,23.620 251.500 C 23.412 250.565,23.043 248.540,22.801 247.000 C 22.559 245.460,22.190 243.432,21.980 242.494 C 21.771 241.556,21.600 240.131,21.600 239.327 C 21.600 238.523,21.428 236.771,21.217 235.433 C 20.421 230.379,19.927 201.609,20.368 186.000 C 20.845 169.085,21.092 166.061,22.827 155.900 C 23.426 152.388,24.618 147.008,25.197 145.200 C 25.373 144.650,25.913 142.850,26.397 141.200 C 28.112 135.357,29.792 130.880,32.174 125.800 C 32.896 124.260,33.910 122.100,34.428 121.000 C 50.973 85.804,85.778 59.903,127.200 51.962 C 138.039 49.884,179.033 48.847,204.600 50.003 M207.400 109.223 C 232.957 111.324,253.520 125.284,264.782 148.182 C 267.116 152.926,267.152 152.801,262.735 155.319 C 260.901 156.364,258.590 157.691,257.600 158.266 C 256.610 158.842,255.260 159.625,254.600 160.005 C 253.940 160.386,251.780 161.645,249.800 162.803 C 247.820 163.961,245.210 165.451,244.000 166.115 C 242.790 166.779,241.350 167.627,240.800 168.000 C 240.250 168.373,238.810 169.222,237.600 169.887 C 236.390 170.551,233.150 172.402,230.400 174.000 C 227.650 175.598,224.410 177.449,223.200 178.113 C 221.990 178.778,220.550 179.627,220.000 180.000 C 219.450 180.373,218.010 181.222,216.800 181.888 C 215.590 182.554,211.090 185.123,206.800 187.598 C 202.510 190.072,198.190 192.552,197.200 193.107 C 196.210 193.663,193.960 194.968,192.200 196.008 C 190.440 197.047,187.702 198.645,186.116 199.557 C 182.451 201.666,182.298 201.444,190.669 206.200 C 194.541 208.400,198.449 210.621,199.354 211.135 C 200.260 211.649,201.630 212.443,202.400 212.898 C 205.796 214.907,216.447 221.058,218.966 222.466 C 220.487 223.316,221.927 224.163,222.166 224.348 C 222.405 224.533,223.590 225.228,224.800 225.891 C 228.088 227.695,242.533 236.016,242.997 236.374 C 243.219 236.545,244.390 237.226,245.600 237.888 C 246.810 238.550,249.420 240.039,251.400 241.197 C 255.985 243.879,257.292 244.634,260.000 246.166 C 267.662 250.500,267.318 249.768,264.425 255.590 C 255.655 273.230,239.571 286.516,220.900 291.542 C 211.505 294.072,206.242 294.402,175.541 294.392 C 143.829 294.381,138.066 293.915,126.924 290.465 C 112.819 286.097,97.927 273.943,89.605 260.009 C 88.282 257.794,87.200 255.911,87.200 255.826 C 87.200 255.741,86.582 254.350,85.827 252.736 C 83.494 247.745,81.448 240.800,80.427 234.400 C 78.776 224.050,78.792 179.341,80.451 168.400 C 81.160 163.724,82.777 157.713,84.485 153.400 C 88.465 143.354,95.866 132.664,103.037 126.602 C 104.337 125.504,105.760 124.278,106.200 123.878 C 113.910 116.879,128.662 110.931,142.200 109.363 C 149.925 108.469,196.993 108.367,207.400 109.223 M366.052 135.784 C 377.290 137.935,385.160 146.313,386.731 157.800 C 388.787 172.833,388.803 230.533,386.755 245.200 C 385.292 255.675,379.209 262.974,368.818 266.721 C 366.429 267.582,356.883 267.669,354.800 266.848 C 348.915 264.529,349.008 264.635,349.840 261.122 C 351.152 255.589,351.873 252.229,352.358 249.400 C 353.958 240.059,354.374 233.191,354.639 211.793 C 354.873 192.844,354.406 171.065,353.598 163.200 C 352.952 156.917,351.796 149.824,350.796 146.000 C 348.945 138.927,348.947 138.758,350.902 137.747 C 355.110 135.571,360.970 134.812,366.052 135.784 M198.800 140.754 C 190.671 142.511,187.275 153.028,192.807 159.313 C 198.202 165.442,207.806 164.144,211.497 156.786 C 215.761 148.284,208.191 138.725,198.800 140.754 M320.337 160.617 C 326.476 162.755,329.879 166.902,330.768 173.329 C 331.341 177.475,331.353 225.001,330.782 229.553 C 329.175 242.374,318.054 246.582,305.491 239.121 C 303.340 237.845,301.499 236.800,301.398 236.800 C 300.121 236.800,296.752 233.797,296.980 232.862 C 297.863 229.241,297.861 174.023,296.978 170.349 C 296.691 169.155,297.678 168.249,301.600 166.108 C 302.810 165.447,305.115 164.141,306.721 163.206 C 312.171 160.035,316.372 159.236,320.337 160.617 M272.137 188.700 C 272.280 191.505,272.397 197.327,272.398 201.637 C 272.402 217.094,271.958 220.533,270.180 218.838 C 269.971 218.638,269.170 218.120,268.400 217.686 C 267.630 217.252,264.120 215.233,260.600 213.200 C 257.080 211.166,253.390 209.053,252.400 208.504 C 251.410 207.956,249.790 207.011,248.800 206.404 C 247.810 205.797,245.695 204.549,244.100 203.632 C 240.944 201.818,240.621 201.232,242.300 200.372 C 242.905 200.062,244.300 199.281,245.400 198.637 C 246.500 197.993,248.570 196.803,250.000 195.993 C 252.609 194.515,263.778 188.049,266.400 186.498 C 269.121 184.889,271.403 183.634,271.638 183.617 C 271.769 183.608,271.994 185.895,272.137 188.700 " stroke="none" fill="none" fillRule="evenodd"></path></g></svg>